<svg width="72" height="72" viewBox="0 0 72 72" fill="none" xmlns="http://www.w3.org/2000/svg">
  <rect width="72" height="72" fill="#FDF429"/>
  <g transform="translate(12 12)">
    <path d="M33.2241 16.1269L28.4265 12.9285L0.378906 31.8729L23.998 47.619L47.617 31.8729L37.7757 25.3531L25.9662 33.3491L31.1329 36.6705L23.998 40.9761L10.5892 31.8729L33.2241 16.1269Z" fill="#346AFF"/>
    <path d="M10.2202 41.0991L5.29954 37.7777L0.378906 41.0991V47.619L10.2202 41.0991Z" fill="#346AFF"/>
    <path d="M47.617 16.1269L23.998 0.380859L0.378906 16.1269L10.2202 22.6467L22.0297 14.6507L16.863 11.3293L23.998 7.02372L37.4067 16.1269L14.7718 31.8729L19.5694 35.0713L47.617 16.1269Z" fill="#346AFF"/>
    <path d="M47.617 6.9007V0.380859L37.7757 6.9007L42.6964 10.2221L47.617 6.9007Z" fill="#346AFF"/>
  </g>
</svg>